<svg width="111" height="31" viewBox="0 0 111 31" fill="none" xmlns="http://www.w3.org/2000/svg">
<path fill-rule="evenodd" clip-rule="evenodd" d="M1.08203 24.9891H3.18197V29.9453H4.246V24.9891H6.34616V23.9251H1.08203V24.9891Z" fill="#040606"/>
<path fill-rule="evenodd" clip-rule="evenodd" d="M12.702 27.3405H12.6741C12.6741 27.8446 12.5341 28.2366 12.254 28.5446C11.974 28.8527 11.582 29.0208 11.106 29.0208C10.6581 29.0208 10.266 28.8527 9.98602 28.5446C9.70604 28.2366 9.56609 27.8165 9.56609 27.3405V23.9245H8.50195V27.3686C8.50195 28.1807 8.75398 28.8527 9.23001 29.3286C9.70604 29.8326 10.3499 30.0566 11.1339 30.0566C11.9179 30.0566 12.562 29.8047 13.038 29.3286C13.5141 28.8245 13.7661 28.1807 13.7661 27.3686V23.9245H12.702V27.3405Z" fill="#040606"/>
<path fill-rule="evenodd" clip-rule="evenodd" d="M19.8979 26.642L17.714 26.11C17.5459 26.0819 17.4339 25.998 17.3499 25.8861C17.2658 25.774 17.2379 25.6621 17.2379 25.5219C17.2379 25.382 17.2938 25.242 17.4058 25.1299C17.5179 25.018 17.6579 24.9622 17.8539 24.9622H20.822V23.926H17.7978C17.2658 23.926 16.8459 24.0941 16.5379 24.402C16.2298 24.7379 16.0898 25.1021 16.0898 25.55C16.0898 25.9139 16.2018 26.25 16.4258 26.5302C16.6499 26.8382 16.9578 27.034 17.3779 27.1181L19.5618 27.65C19.7298 27.6781 19.8419 27.7622 19.9259 27.874C20.01 27.9861 20.066 28.126 20.066 28.266C20.066 28.4341 20.01 28.5743 19.8979 28.686C19.7859 28.7983 19.6179 28.8824 19.4218 28.8824H16.3138V29.918H19.4498C20.01 29.918 20.4299 29.7504 20.7379 29.4142C21.0459 29.0782 21.2139 28.686 21.2139 28.2101C21.2139 27.8461 21.102 27.51 20.8779 27.202C20.6539 26.95 20.3179 26.726 19.8979 26.642Z" fill="#040606"/>
<path fill-rule="evenodd" clip-rule="evenodd" d="M27.7098 27.3405H27.6818C27.6818 27.8446 27.5418 28.2366 27.2618 28.5446C26.9817 28.8527 26.5898 29.0208 26.1137 29.0208C25.6658 29.0208 25.2737 28.8527 24.9937 28.5446C24.7137 28.2366 24.5737 27.8165 24.5737 27.3405V23.9245H23.5098V27.3686C23.5098 28.1807 23.7617 28.8527 24.2377 29.3286C24.7137 29.8326 25.3577 30.0566 26.1417 30.0566C26.9257 30.0566 27.5698 29.8047 28.0459 29.3286C28.5218 28.8245 28.7737 28.1807 28.7737 27.3686V23.9245H27.7098V27.3405Z" fill="#040606"/>
<path fill-rule="evenodd" clip-rule="evenodd" d="M35.1299 26.5293C34.9338 26.6971 34.7098 26.7811 34.4018 26.7811H32.4977V24.9891H34.4018C34.6816 24.9891 34.9338 25.0731 35.1299 25.2412C35.3256 25.4092 35.4097 25.6331 35.4097 25.8852C35.4097 26.1373 35.3256 26.3613 35.1299 26.5293ZM35.9138 26.8932C36.3056 26.5852 36.5017 26.1651 36.5017 25.605C36.5017 25.0731 36.3056 24.6811 35.9417 24.3731C35.5778 24.0651 35.0737 23.9251 34.4856 23.9251H31.4336V29.9453H32.4977V27.7894H35.1017C35.3818 27.7894 35.5217 27.9012 35.5217 28.1532V29.9171H36.5858V27.9293C36.6137 27.3692 36.3897 27.0054 35.9138 26.8932Z" fill="#040606"/>
<path fill-rule="evenodd" clip-rule="evenodd" d="M47.0028 27.3405H46.9749C46.9749 27.8446 46.8347 28.2366 46.5549 28.5446C46.2747 28.8527 45.8829 29.0208 45.4067 29.0208C44.9588 29.0208 44.5667 28.8527 44.2868 28.5446C44.0067 28.2366 43.8668 27.8165 43.8668 27.3405V23.9245H42.8027V27.3686C42.8027 28.1807 43.0546 28.8527 43.5308 29.3286C44.0067 29.8326 44.6507 30.0566 45.4347 30.0566C46.2189 30.0566 46.8629 29.8047 47.3388 29.3286C47.8147 28.8245 48.0669 28.1807 48.0669 27.3686V23.9245H47.0028V27.3405Z" fill="#040606"/>
<path fill-rule="evenodd" clip-rule="evenodd" d="M55.1786 28.1813L51.9864 23.9251H50.7266V29.9453H51.8185V25.4092L55.1786 29.9453H56.2426V23.9251H55.1786V28.1813Z" fill="#040606"/>
<path fill-rule="evenodd" clip-rule="evenodd" d="M59.0996 29.9453H60.1634V23.9251H59.0996V29.9453Z" fill="#040606"/>
<path fill-rule="evenodd" clip-rule="evenodd" d="M65.4823 28.6293L63.4941 23.9251H62.3184L64.8662 29.9453H66.0423L68.5901 23.9251H67.4423L65.4823 28.6293Z" fill="#040606"/>
<path fill-rule="evenodd" clip-rule="evenodd" d="M70.6914 29.9453H75.2275V28.8815H71.7552V27.3692H74.8912V26.3613H71.7552V24.9891H75.2275V23.9251H70.6914V29.9453Z" fill="#040606"/>
<path fill-rule="evenodd" clip-rule="evenodd" d="M81.5289 26.5293C81.3328 26.6971 81.1088 26.7811 80.8011 26.7811H78.897V24.9891H80.8011C81.0809 24.9891 81.3328 25.0731 81.5289 25.2412C81.7249 25.4092 81.809 25.6331 81.809 25.8852C81.7808 26.1373 81.6967 26.3613 81.5289 26.5293ZM82.2849 26.8932C82.677 26.5852 82.8728 26.1651 82.8728 25.605C82.8728 25.0731 82.677 24.6811 82.3128 24.3731C81.9489 24.0651 81.4448 23.9251 80.8569 23.9251H77.8047V29.9453H78.8687V27.7894H81.4728C81.7529 27.7894 81.8931 27.9012 81.8931 28.1532V29.9171H82.9568V27.9293C82.9851 27.3692 82.7611 27.0054 82.2849 26.8932Z" fill="#040606"/>
<path fill-rule="evenodd" clip-rule="evenodd" d="M89.1439 26.642L86.9597 26.11C86.7918 26.0819 86.6798 25.998 86.5958 25.8861C86.512 25.774 86.4838 25.6621 86.4838 25.5219C86.4838 25.382 86.5396 25.242 86.6519 25.1299C86.7639 25.018 86.9038 24.9622 87.0999 24.9622H90.0678V23.926H87.0437C86.512 23.926 86.0917 24.0941 85.7839 24.402C85.4759 24.7379 85.3359 25.1021 85.3359 25.55C85.3359 25.9139 85.4476 26.25 85.6719 26.5302C85.8959 26.8382 86.2039 27.034 86.6237 27.1181L88.8077 27.65C88.9758 27.6781 89.0878 27.7622 89.1718 27.874C89.2559 27.9861 89.3118 28.126 89.3118 28.266C89.3118 28.4341 89.2559 28.5743 89.1439 28.686C89.0319 28.7983 88.8638 28.8824 88.6677 28.8824H85.5317V29.918H88.696C89.2559 29.918 89.6757 29.7504 89.9837 29.4142C90.292 29.0782 90.4599 28.686 90.4599 28.2101C90.4599 27.8461 90.3479 27.51 90.1239 27.202C89.8999 26.95 89.564 26.726 89.1439 26.642Z" fill="#040606"/>
<path fill-rule="evenodd" clip-rule="evenodd" d="M92.9238 29.9453H93.9879V23.9251H92.9238V29.9453Z" fill="#040606"/>
<path fill-rule="evenodd" clip-rule="evenodd" d="M96.3125 24.9891H98.4124V29.9453H99.4765V24.9891H101.577V23.9251H96.3125V24.9891Z" fill="#040606"/>
<path fill-rule="evenodd" clip-rule="evenodd" d="M106.225 26.5012L104.489 23.9251H103.229L105.665 27.5092V29.9453H106.757V27.4811L109.221 23.9251H107.961L106.225 26.5012Z" fill="#040606"/>
<path fill-rule="evenodd" clip-rule="evenodd" d="M11.8268 18.5898L11.8542 3.91593H19.1364V0.00100517H0V3.91593H7.2823V18.5898H11.8268Z" fill="#040606"/>
<path fill-rule="evenodd" clip-rule="evenodd" d="M105.866 10.1851H95.5445V3.91578H105.866V10.1851ZM104.935 0.000852585H91L90.9727 18.5625H95.5445V14.0178H104.907C107.892 14.0178 110.301 11.6087 110.301 8.62454V5.39411C110.328 2.40999 107.919 0.000852585 104.935 0.000852585Z" fill="#040606"/>
<path fill-rule="evenodd" clip-rule="evenodd" d="M51.3855 18.5898H63.2397V14.675H50.5641V3.91593H63.2397V0.00100517H51.3855C48.4015 0.00100517 45.9922 2.41014 45.9922 5.39427V13.1967C45.9922 16.1808 48.4015 18.5898 51.3855 18.5898Z" fill="#040606"/>
<path fill-rule="evenodd" clip-rule="evenodd" d="M34.3401 18.5625L44.1835 0.000852585H39.4948L33.4938 11.3163L26.8353 0.000852585H22.1465L29.3171 12.3925C29.8915 13.3849 30.9287 13.9939 32.0498 13.9966L32.0723 13.9968L29.6511 18.5625H34.3401Z" fill="#040606"/>
<path fill-rule="evenodd" clip-rule="evenodd" d="M76.067 13.9966L76.0898 13.9968L73.6683 18.5625H78.3573L88.2009 0.000852585H83.5123L77.511 11.3163L70.8527 0.000852585H66.1641L73.3346 12.3925C73.9089 13.3849 74.9459 13.9939 76.067 13.9966Z" fill="#040606"/>
</svg>
